<svg xmlns="http://www.w3.org/2000/svg" viewBox="0 0 161.5 161.5"><path d="M504.54,431.79h14.31c19.66,0,31.15,2.89,41.35,8.36a56.65,56.65,0,0,1,23.65,23.65c5.47,10.2,8.36,21.69,8.36,41.35V519.4c0,19.66-2.89,31.15-8.36,41.35a56.65,56.65,0,0,1-23.65,23.65c-10.2,5.47-21.69,8.36-41.35,8.36H504.6c-19.66,0-31.15-2.89-41.35-8.36a56.65,56.65,0,0,1-23.65-23.65c-5.47-10.2-8.36-21.69-8.36-41.35V505.14c0-19.66,2.89-31.15,8.36-41.35a56.65,56.65,0,0,1,23.65-23.65C473.39,434.68,484.94,431.79,504.54,431.79Z" transform="translate(-431.25 -431.25)" style="fill:#0068ff"></path><path d="M592.21,517v2.35c0,19.66-2.89,31.15-8.35,41.35a56.65,56.65,0,0,1-23.65,23.65c-10.2,5.47-21.69,8.36-41.35,8.36H504.6c-16.09,0-26.7-1.93-35.62-5.63L454.29,572Z" transform="translate(-431.25 -431.25)" style="fill:#001a33;opacity:0.11999999731779099;isolation:isolate"></path><path d="M455.92,572.51c7.53.83,16.94-1.31,23.62-4.56,29,16,74.38,15.27,101.84-2.3q1.6-2.4,3-5c5.49-10.24,8.39-21.77,8.39-41.5v-14.3c0-19.73-2.9-31.26-8.39-41.5a56.86,56.86,0,0,0-23.74-23.74c-10.24-5.49-21.77-8.39-41.5-8.39H504.76c-16.8,0-27.71,2.12-36.88,6.15q-.75.67-1.47,1.37c-26.89,25.92-28.93,82.11-6.13,112.64l.08.14c3.51,5.18.12,14.24-5.18,19.55C454.32,571.89,454.63,572.39,455.92,572.51Z" transform="translate(-431.25 -431.25)" style="fill:#fff"></path><path d="M497.35,486.34H465.84v6.76h21.87l-21.56,26.72a6.06,6.06,0,0,0-1.17,4v1.72h29.73a2.73,2.73,0,0,0,2.7-2.7v-3.62h-23l20.27-25.43,1.11-1.35.12-.18a8,8,0,0,0,1.41-5Z" transform="translate(-431.25 -431.25)" style="fill:#0068ff"></path><path d="M537.47,525.54H542v-39.2h-6.76v36.92A2.27,2.27,0,0,0,537.47,525.54Z" transform="translate(-431.25 -431.25)" style="fill:#0068ff"></path><path d="M514.37,495.07a15.36,15.36,0,1,0,15.36,15.36A15.36,15.36,0,0,0,514.37,495.07Zm0,24.39a9,9,0,1,1,9-9A9,9,0,0,1,514.37,519.46Z" transform="translate(-431.25 -431.25)" style="fill:#0068ff"></path><path d="M561.92,494.82A15.48,15.48,0,1,0,577.4,510.3,15.5,15.5,0,0,0,561.92,494.82Zm0,24.64a9.09,9.09,0,1,1,9.09-9.09A9.07,9.07,0,0,1,561.92,519.46Z" transform="translate(-431.25 -431.25)" style="fill:#0068ff"></path><path d="M526.17,525.54h3.62V495.93h-6.33v27A2.72,2.72,0,0,0,526.17,525.54Z" transform="translate(-431.25 -431.25)" style="fill:#0068ff"></path></svg>